<?xml version="1.0" encoding="utf-8"?>
<!-- Uploaded to: SVG Repo, www.svgrepo.com, Generator: SVG Repo Mixer Tools -->
<svg width="800px" height="800px" viewBox="-85.77 0 357.516 357.516" xmlns="http://www.w3.org/2000/svg"><defs><style>.a{fill:#211715;}.b{fill:#ffffff;}.c{fill:#f2635f;}.d{fill:#74c66d;}</style></defs><path class="a" d="M115.514,140.273c1.946,5.251,3.506,10.993,3.411,16.635a13.292,13.292,0,0,1-.083,1.475c-.019.1-.162.556-.1.42.067-.152-.149.5-.03.07-.069.246.128-.078-.073.068-.1.07-.322.107.06-.013a.782.782,0,0,1-.227.065,1.239,1.239,0,0,0-.236.049c.03,0,.349-.03.115-.031-.209,0-.414,0-.622-.013-.37-.023.155.047-.223-.035-.231-.05-.461-.1-.69-.161-.446-.12-.884-.265-1.317-.425-.792-.293-1.386-.569-2.269-.987-.667-.316-1.329-.645-2.007-.937a10.963,10.963,0,0,0-1.732-.8,5.745,5.745,0,0,0-1.936-.192,16.237,16.237,0,0,0-3.662.9,4.741,4.741,0,0,1-2.427.324,1.357,1.357,0,0,1-.206-.124c-.249-.14.239.222.034.036-.111-.1-.213-.206-.317-.312-.051-.052.115.267-.028-.064-.077-.178-.2-.487-.078-.115-.054-.168-.094-.339-.145-.507-.115-.377-.016.015-.023-.092a9.192,9.192,0,0,1,0-1.1c.007-.12.021-.24.033-.359,0,.035-.046.31-.008.071.03-.191.064-.38.1-.569.088-.431.2-.859.321-1.282a27.75,27.75,0,0,1,.96-2.709c.739-1.822,1.821-3.958,2.757-5.883a27.667,27.667,0,0,0,2.128-5.061c.642-2.5-3.215-3.559-3.857-1.064-.08.31-.177.614-.286.916-.062.173-.132.344-.2.517-.03.077-.063.154-.095.232.156-.375-.007.014-.041.088-.4.889-.819,1.769-1.247,2.645-1,2.057-2.012,4.111-2.887,6.227-1.362,3.294-3.1,8.326.026,11.2,2.215,2.04,5.025,1.325,7.6.5a3.576,3.576,0,0,1,2.824-.18c.247.121.472.256.729.367,0,0-.383-.167-.17-.071.163.074.326.147.488.223.415.193.827.393,1.24.59,3.4,1.613,9.671,4.344,11.448-.864a12.911,12.911,0,0,0,.337-4.555,42.977,42.977,0,0,0-.647-5.611,60.179,60.179,0,0,0-2.886-10.562,2.054,2.054,0,0,0-2.46-1.4,2.017,2.017,0,0,0-1.4,2.461Z"/><path class="b" d="M122.38,335.84c3.9,2.591,8.136,6.471,10.465,11.024a5.916,5.916,0,0,1-5.273,8.555c-7.071.054-17.719.012-24.91-.162a6.72,6.72,0,0,1-6.475-7.626,46.38,46.38,0,0,1,2.4-9.886l3.056-11.471,18-.166Z"/><path class="b" d="M39.876,335.84c-3.9,2.591-8.136,6.471-10.465,11.024a5.917,5.917,0,0,0,5.273,8.555c7.071.054,17.719.012,24.91-.162a6.721,6.721,0,0,0,6.476-7.626,46.442,46.442,0,0,0-2.4-9.886l-3.056-11.471-18-.166Z"/><path class="a" d="M38.867,334.114c-4.564,3.065-9.417,7.3-11.528,12.519a7.952,7.952,0,0,0,6.153,10.673,52.208,52.208,0,0,0,7.651.135q4.224,0,8.447-.035,4.13-.035,8.259-.111c2.671-.053,5.03-.329,7.167-2.082a8.748,8.748,0,0,0,3.09-7.232A41.228,41.228,0,0,0,65.6,337.214c-.86-2.407-4.727-1.369-3.857,1.063a47.64,47.64,0,0,1,2.127,8.053c.311,1.831.461,3.6-.755,5.153-1.261,1.608-3.012,1.766-4.905,1.805q-3.279.067-6.56.1-7.078.073-14.157.047c-1.7-.006-3.7.3-5.146-.8a3.993,3.993,0,0,1-1.537-3.718,8.474,8.474,0,0,1,1.568-3.15,24.331,24.331,0,0,1,2.521-3.142,34.578,34.578,0,0,1,5.99-5.06c2.126-1.428.126-4.894-2.019-3.453Z"/><path class="a" d="M121.37,337.567a29.075,29.075,0,0,1,9.561,9.948,3.937,3.937,0,0,1-.311,4.436c-1.061,1.312-2.491,1.465-4.065,1.475q-6.945.042-13.889-.02-3.579-.03-7.159-.09c-1.787-.032-3.768.2-5.318-.863a5.085,5.085,0,0,1-1.946-5.208,46.139,46.139,0,0,1,2.273-8.968c.868-2.428-3-3.474-3.857-1.063a47.573,47.573,0,0,0-2.339,9.426,9.264,9.264,0,0,0,1.793,7.42,8.789,8.789,0,0,0,6.549,3.2c2.644.118,5.3.1,7.947.13q8.144.086,16.29.036a8.42,8.42,0,0,0,6.488-2.583,8,8,0,0,0,1.972-6.677c-.475-2.9-2.719-5.617-4.612-7.753a38.291,38.291,0,0,0-7.358-6.3c-2.142-1.44-4.147,2.024-2.019,3.453Z"/><path class="c" d="M81.834,244.108c-1.368,11.111-7.858,67.169-9.323,84.146a2.951,2.951,0,0,1-3.089,2.665c-7.088-.283-23-.82-32.582-.992a2.935,2.935,0,0,1-2.925-2.909c.036-11.031,1-36.917,1.818-55.714.961-22.122,1.764-42.1,2.446-56.841.269.024.551.033.841.033h.029c12.282,0,64.541.221,85.3.223a10.859,10.859,0,0,0,1.145-.108c.054,1.232.092,2.052.092,2.052.659,14.5,1.43,33.6,2.344,54.641.817,18.8,1.782,44.683,1.818,55.714a2.934,2.934,0,0,1-2.925,2.909c-9.585.172-25.494.709-32.581.992a2.951,2.951,0,0,1-3.089-2.665c-1.465-16.977-7.956-73.035-9.323-84.146"/><path class="b" d="M119.023,87.031c20.81-.25,36.33,10.86,49.21,27.55,5.68,7.36,10.67,19.52,13.44,29.57,5.91,21.51.96,45.9-18.82,53.89-9.24,3.73-21.89,1.74-28.56-2.64l-14.984-11.849Z"/><path class="c" d="M158.283,148.371a130.136,130.136,0,0,0-9.94-23.16c-4.07-7.39-9.69-14.95-17.71-17.1,0,0-12.2-6.67-35.866-10.337-22.41-3.472-55.624,3-55.624,3-12,2.167-19.58,11.464-23.6,19.307C6.857,137.01,2.407,154.411,2.588,173.492c.061,6.467,1.556,13.285,6.04,17.946a17.381,17.381,0,0,0,12.914,5.254c4-.128,9.778-2.522,13.828-6.4-.023,5.684.078,9.249.221,12.258a3.637,3.637,0,0,1,.468-.54,3.543,3.543,0,0,1,2.961-1.069c12.283,0,65.041.222,85.621.222a4.549,4.549,0,0,1,2.81.721c.211-6.147.387-12.95.346-19.938,7.144,5.645,20.839,7.835,27.6,2.075,3.64-3.1,4.95-6.64,5.88-11.34C162.923,164.4,160.813,156.231,158.283,148.371Z"/><path class="b" d="M122.925,48.265c0,6.183,4.171,10.441,9.992,10.441,6.044,0,9.992-4.3,9.992-10.441a10,10,0,1,0-19.984,0"/><path class="c" d="M122.925,48.265a9.979,9.979,0,0,1,8.508-10.14c-5.64-10.624-7.027-24.4-16.843-31.371-4.351-3.089-9.78-4.293-15.1-4.65C76.563.569,49.638,17.078,43.449,42.562,60.8,32.383,82.415,30.989,102.077,35.106c3.906.818,10.37,3.255,13.024,5.377a7.693,7.693,0,0,1,2.326,2.927,6.856,6.856,0,0,1,3.556,2.691c.3.61.61,1.21.92,1.82Z"/><path class="b" d="M119.723,60.1c-.81,5.06-1.48,8.79-1.05,14.29a79.177,79.177,0,0,1,.35,12.64,27.519,27.519,0,0,1-1.11,5.96,56.539,56.539,0,0,1-5.74,11.8c-8.22,13.63-24.86,26.99-31.15,26.99-4.37,0-14.61-6.03-25.2-17.83-2.96-3.31-8.41-10.04-10.61-13.98-2.92-5.26-4.82-10.92-5.2-19.4a89.989,89.989,0,0,1,1.421-21.213c.625-2.57,2.528-19.764,44.209-17.917C125.421,43.635,119.723,60.1,119.723,60.1Z"/><path class="b" d="M115.1,40.483c-2.654-2.122-9.118-4.559-13.024-5.377C82.848,31.08,61.756,32.324,44.6,41.9a7.552,7.552,0,0,0-3.736,5.764c-.237,2.2.828,5.26,2.778,6.32a6.586,6.586,0,0,0,5.825.265c10.7-5.382,21.979-6.167,33.758-6.224,5.487-.026,14.871,1.491,22.5,3.625a36.7,36.7,0,0,0,8.25,1.125c1.575.032,2.883-1.452,3.389-2.944C118.476,46.552,118.4,43.117,115.1,40.483Z"/><path class="a" d="M116.515,39.068c-4.064-3.154-9.532-5-14.53-6.018a102.841,102.841,0,0,0-19.4-2.1c-12.783-.128-25.709,2.337-37.126,8.219-2.7,1.393-4.883,2.994-6.015,5.93a9.445,9.445,0,0,0,.717,8.08,7.773,7.773,0,0,0,7.651,3.563,12.282,12.282,0,0,0,3.9-1.37,46.115,46.115,0,0,1,4.943-1.963,70.847,70.847,0,0,1,19.383-3.227,83.284,83.284,0,0,1,17.513.839A110.5,110.5,0,0,1,104.4,53.359a30.328,30.328,0,0,0,9.91,1.4c3.464-.278,5.111-3.743,5.553-6.784a9.476,9.476,0,0,0-3.347-8.906c-1.962-1.64-4.806,1.176-2.828,2.829a5.7,5.7,0,0,1,2.172,5.867,4.69,4.69,0,0,1-1.2,2.7c-.834.711-2.573.235-3.571.134a54.681,54.681,0,0,1-7.657-1.616q-4.163-1.03-8.4-1.742a89.354,89.354,0,0,0-33.5.694,54.9,54.9,0,0,0-8.455,2.539c-1.428.562-2.824,1.19-4.21,1.848a4.527,4.527,0,0,1-3.389.273c-2-.613-2.891-2.955-2.617-4.926.349-2.513,2.165-3.758,4.236-4.843,10.108-5.292,21.562-7.664,32.917-7.859a96.189,96.189,0,0,1,19.027,1.582,48.791,48.791,0,0,1,8.078,2.153,24.669,24.669,0,0,1,6.564,3.2,2.066,2.066,0,0,0,2.828,0A2.013,2.013,0,0,0,116.515,39.068Z"/><path class="a" d="M45.477,42.692C49.377,27.48,60.959,15.4,75.026,8.908a51.759,51.759,0,0,1,21.186-4.9,35.144,35.144,0,0,1,13.05,2.125,20.28,20.28,0,0,1,9.311,7.575c5.2,7.638,6.8,17.081,11.024,25.221,1.186,2.287,4.639.266,3.454-2.018-3.97-7.657-5.629-16.35-10.1-23.77A25.541,25.541,0,0,0,113.829,3.9,33.733,33.733,0,0,0,99.176.085c-15.99-.955-32.267,6.237-43.5,17.407A52.751,52.751,0,0,0,41.62,41.629c-.639,2.5,3.217,3.559,3.857,1.063Z"/><path class="a" d="M120.925,48.265c.056,5.114,2.691,9.755,7.561,11.655,4.438,1.731,10.17.661,13.351-2.985a13.408,13.408,0,0,0,1.832-14.179,11.962,11.962,0,0,0-12.746-6.568c-5.928.889-9.925,6.243-10,12.077-.032,2.575,3.968,2.576,4,0a8.16,8.16,0,0,1,5.424-7.853,8.025,8.025,0,0,1,9.17,3.093,9.44,9.44,0,0,1,.046,9.832,8.02,8.02,0,0,1-8.539,3.178c-3.921-.881-6.058-4.291-6.1-8.25-.028-2.572-4.028-2.579-4,0Z"/><path class="a" d="M123.63,46.911q-.242-.474-.484-.949a9.532,9.532,0,0,0-.479-.933,8.245,8.245,0,0,0-1.421-1.653,8.659,8.659,0,0,0-3.3-1.894,2.067,2.067,0,0,0-1.541.2,2,2,0,0,0,.478,3.655,5.488,5.488,0,0,1,.6.213l-.478-.2a6.938,6.938,0,0,1,1.451.86l-.405-.313a7.224,7.224,0,0,1,1.261,1.253l-.313-.4a6.29,6.29,0,0,1,.6,1.038q.291.573.584,1.146a2,2,0,0,0,3.655-.477,2.2,2.2,0,0,0-.2-1.542Z"/><path class="a" d="M52.085,51.8c-1.769,7.918-1.183,15.842,2.54,23.114,1.174,2.292,4.626.271,3.454-2.018a29.244,29.244,0,0,1-2.137-20.032c.56-2.508-3.3-3.579-3.857-1.064Z"/><path class="a" d="M103.461,52.859a29.238,29.238,0,0,1-2.137,20.032c-1.171,2.287,2.279,4.313,3.454,2.018,3.724-7.272,4.309-15.2,2.54-23.114-.561-2.511-4.418-1.448-3.857,1.064Z"/><path class="a" d="M36.078,216.663q-1.421,31.278-2.68,62.564-.606,14.672-1.079,29.349c-.128,4.124-.244,8.25-.325,12.376q-.048,2.423-.071,4.844c-.018,2.151.346,4.164,2.332,5.388,1.792,1.1,4.254.773,6.277.819q3.342.078,6.685.173,6.892.195,13.784.434,2.9.1,5.8.208c1.847.069,3.845.383,5.477-.7,2.664-1.775,2.362-5.375,2.637-8.219,1.32-13.681,2.876-27.34,4.418-41q2.072-18.33,4.243-36.651.129-1.07.26-2.137a2.011,2.011,0,0,0-2-2,2.049,2.049,0,0,0-2,2c-1.307,10.624-2.509,21.262-3.721,31.9-1.594,13.987-3.174,27.976-4.61,41.98q-.386,3.759-.744,7.521a9.648,9.648,0,0,1-.337,2.906c-.594.974-2.8.436-3.761.4q-12.805-.48-25.616-.8-1.409-.033-2.816-.062c-.635-.013-1.7.2-2.137-.4-.335-.453-.174-1.226-.169-1.757q.009-1.176.028-2.352c.055-3.689.149-7.377.255-11.065.266-9.336.611-18.67.983-28q1.221-30.642,2.6-61.279.141-3.218.287-6.435c.117-2.573-3.884-2.568-4,0Z"/><path class="a" d="M123.59,216.663q1.38,30.4,2.607,60.817.594,14.229,1.068,28.462.2,6.3.357,12.6.058,2.58.1,5.161.013.988.023,1.976c0,.592.2,1.5-.256,1.962s-1.3.3-1.891.307q-1.573.031-3.147.069-3.284.078-6.566.173-6.609.189-13.218.418-2.829.1-5.659.2c-.958.035-3.252.6-3.792-.45a11.163,11.163,0,0,1-.315-2.947q-.168-1.789-.347-3.577c-1.339-13.509-2.865-27-4.392-40.488q-1.986-17.558-4.068-35.106-.128-1.07-.259-2.137a2.063,2.063,0,0,0-2-2,2.011,2.011,0,0,0-2,2c1.362,11.078,2.614,22.171,3.876,33.261,1.618,14.229,3.23,28.461,4.667,42.71.244,2.411.481,4.823.7,7.238.179,2,.627,3.748,2.452,4.879,1.64,1.017,3.653.685,5.481.617q13.146-.492,26.3-.814c2.053-.047,4.441.262,6.237-.909,1.94-1.265,2.219-3.282,2.2-5.409-.031-3.571-.116-7.142-.211-10.711-.253-9.53-.6-19.057-.975-28.582q-1.243-31.648-2.681-63.29-.141-3.218-.287-6.435c-.117-2.563-4.117-2.578-4,0Z"/><path class="a" d="M130.1,110.039c7.043,1.968,11.824,8.168,15.384,14.2a120.9,120.9,0,0,1,10.726,24.222c2.791,8.623,4.966,17.508,2.484,26.485a12.945,12.945,0,0,1-12.859,10.429c-6.431.349-13.924-1.726-18.449-6.514-1.772-1.875-4.6.957-2.828,2.828,4.718,4.993,12.125,7.412,18.85,7.7,7.157.3,14.123-2.469,17.514-9.115,4.382-8.589,3.189-18.929.678-27.861a133.907,133.907,0,0,0-11.195-27.59c-4.28-7.883-10.163-16.1-19.242-18.635-2.483-.693-3.543,3.165-1.063,3.857Z"/><path class="a" d="M125.809,183.774c-.006,9.862-.433,19.71-.777,29.563-.09,2.575,3.91,2.571,4,0,.344-9.853.771-19.7.777-29.563,0-2.574-4-2.578-4,0Z"/><path class="a" d="M33.365,191.774c0,7.207.522,14.367.777,21.563.091,2.567,4.091,2.579,4,0-.255-7.2-.773-14.356-.777-21.563,0-2.574-4-2.578-4,0Z"/><path class="a" d="M79.835,151.439a4.2,4.2,0,0,0-4.209,4.317,4.127,4.127,0,0,0,4.209,4.4,4.084,4.084,0,0,0,4.209-4.4A4.191,4.191,0,0,0,79.835,151.439Z"/><path class="b" d="M133.413,106.354a25.723,25.723,0,0,0-6.268,4.774,9.892,9.892,0,0,0-2.632,4.484l-6.88,23.641c2,5.53,3.68,12.86,3.22,18.1-.49,5.57-8.11.85-10.76-.22-2.93-2.09-5.97,1.31-9.18.5-6.45-2.64,3.19-16.83,4.35-21.54v-21.95a67.9,67.9,0,0,0,6.91-9.352,56.539,56.539,0,0,0,5.74-11.8h15.4Z"/><path class="a" d="M79.835,174.634a4.2,4.2,0,0,0-4.209,4.318,4.127,4.127,0,0,0,4.209,4.4,4.084,4.084,0,0,0,4.209-4.4A4.192,4.192,0,0,0,79.835,174.634Z"/><path class="a" d="M117.794,59.569a85.167,85.167,0,0,0-1.217,9.729c-.152,3.482.29,6.937.476,10.409a39.732,39.732,0,0,1-.586,10.963,37.8,37.8,0,0,1-4.093,9.8,75.032,75.032,0,0,1-23.145,25.5,31.874,31.874,0,0,1-5.436,3.093,14.8,14.8,0,0,1-1.853.6c-.17.039-.341.074-.514.1.441-.076.091-.008-.029,0a7.189,7.189,0,0,1-.951-.017c.538.045-.373-.077-.529-.113-.341-.08-.678-.177-1.011-.285a15.422,15.422,0,0,1-2.289-.941,43.174,43.174,0,0,1-5.976-3.622A81.469,81.469,0,0,1,56.7,111.931a84.268,84.268,0,0,1-9.493-12.5A39.743,39.743,0,0,1,42.061,81.5a85.934,85.934,0,0,1,1.3-21.613c.494-2.514-3.36-3.591-3.857-1.063a90.876,90.876,0,0,0-1.531,20.818A47.737,47.737,0,0,0,41.833,97.7c2.338,5.2,5.93,9.721,9.53,14.1a94.339,94.339,0,0,0,13.618,13.682c3.85,3.1,8.105,6.193,12.861,7.73,3.489,1.127,6.6.119,9.736-1.549a62.292,62.292,0,0,0,13.029-9.8,80.29,80.29,0,0,0,12.1-14.169,67.521,67.521,0,0,0,5.819-10.678,33.194,33.194,0,0,0,2.618-12.329c.108-4.223-.49-8.4-.6-12.609a62.3,62.3,0,0,1,1.1-11.436,2.063,2.063,0,0,0-1.4-2.461,2.016,2.016,0,0,0-2.46,1.4Z"/><path class="a" d="M119.023,89.031A51.918,51.918,0,0,1,151.3,100.055a74.976,74.976,0,0,1,22.584,28.35c4.984,10.976,8.57,22.968,8.077,35.123-.412,10.141-3.743,20.6-11.5,27.516a27.287,27.287,0,0,1-16.478,6.893c-6.336.384-13.281-.777-18.684-4.263-2.169-1.4-4.177,2.061-2.019,3.454,5.185,3.345,11.692,4.739,17.8,4.865a31.846,31.846,0,0,0,17.9-4.851c9.619-6.122,14.917-16.8,16.453-27.855,1.763-12.688-.983-25.15-5.588-36.957-2.475-6.344-5.382-12.716-9.464-18.205a91.063,91.063,0,0,0-13.163-14.364c-9.405-8.185-20.738-13.6-33.254-14.572-1.644-.127-3.291-.172-4.939-.158-2.573.022-2.579,4.022,0,4Z"/><path class="a" d="M126.442,116.144c.071-.282.153-.561.251-.835q.039-.109.081-.216l-.086.2a1.673,1.673,0,0,1,.187-.4,9.473,9.473,0,0,1,.712-1.2,3.644,3.644,0,0,0,.229-.318c-.081.154-.232.293-.042.058q.2-.252.42-.492c.317-.354.651-.692.992-1.022q.607-.591,1.254-1.139c.205-.175.415-.343.624-.513.419-.341-.328.241.105-.083.108-.081.215-.162.324-.241a26.262,26.262,0,0,1,2.93-1.856,2.018,2.018,0,0,0,.717-2.736,2.042,2.042,0,0,0-2.736-.718,27.936,27.936,0,0,0-6.162,4.57,12.773,12.773,0,0,0-3.658,5.884,2,2,0,0,0,3.858,1.063Z"/><path class="a" d="M63.253,59.371c-.5,1.623-.174,5.359,2.9,5.677,4.066-.024,4.282-4.541,2.914-6.664C67.948,56.645,64.653,55.922,63.253,59.371Z"/><path class="a" d="M94.869,59.371c.5,1.624.174,5.359-2.9,5.677-4.066-.025-4.283-4.541-2.914-6.664C90.174,56.645,93.469,55.922,94.869,59.371Z"/><path class="a" d="M38.611,98.846c-8.849,1.661-16.123,7.265-21.29,14.467a66.317,66.317,0,0,0-6.245,11.421A121.847,121.847,0,0,0,5.3,140,112.476,112.476,0,0,0,.588,171.228c-.1,9.756,2.23,20.732,11.846,25.427a18.817,18.817,0,0,0,14.625.936,25.784,25.784,0,0,0,12.186-8.724,2.012,2.012,0,0,0-.718-2.736,2.047,2.047,0,0,0-2.736.717,21,21,0,0,1-9.321,6.713,15.024,15.024,0,0,1-11.032.073C6.509,190.18,4.535,180.2,4.584,171.68a108.35,108.35,0,0,1,4.084-28.946,112.877,112.877,0,0,1,4.785-13.542,83.052,83.052,0,0,1,5.817-11.621c4.673-7.428,11.634-13.222,20.4-14.868,2.527-.475,1.457-4.33-1.063-3.857Z"/><path class="d" d="M8.384,116.859c-.151.375-.284.751-.409,1.105-.239.674-.463,1.353-.66,2.044a2.99,2.99,0,0,0-.153,1.194,4.846,4.846,0,0,0,1.084,1.7l.029.033c6.511.007,26.018.011,36.448.013a4.18,4.18,0,0,0,1.14-1.744,2.99,2.99,0,0,0-.153-1.194c-.2-.691-.421-1.37-.659-2.044-.537-1.521-1.239-3.435-2.711-4.05a4.573,4.573,0,0,0-3.1.178,63.252,63.252,0,0,0-12.114,5.553,1.331,1.331,0,0,1-1.285.023c-3.917-2.053-7.777-4.244-12.052-5.576a4.572,4.572,0,0,0-3.1-.178A4.975,4.975,0,0,0,8.384,116.859Z"/><path class="b" d="M3.351,137.448H2.665a.664.664,0,0,1-.649-.682c.006-2.4.031-10.431.037-13.151a.665.665,0,0,1,.65-.681c5.288.006,41.125.012,47.612.012a.666.666,0,0,1,.657.682c.006,3.78.031,10.885.038,13.113a.667.667,0,0,1-.65.688c-.48,0-1.206.006-2.133,0-.007,5-.038,22.579-.038,26.876-4.973,0-35.036-.028-43.088-.028,0-6.721-.12-20.6-.132-26.829Z"/><path class="d" d="M30.953,124.482c0-.558,0-1.073,0-1.538l-8.558,0c0,3.13.013,8.493.025,14.5.019,9.365.044,20.313.051,26.845,2.839,0,5.752,0,8.557.006-.007-6.532-.032-17.48-.051-26.851C30.965,132.329,30.955,127.682,30.953,124.482Z"/><path class="a" d="M46.137,124.36a6.679,6.679,0,0,0,1.624-2.509,5.763,5.763,0,0,0-.371-3.2,14.834,14.834,0,0,0-2.4-5.168c-3.092-3.681-8.707-.6-12.151.959a66.787,66.787,0,0,0-6.132,3.14c-.139.082-.538.173-.348.2.3.048-.346-.288-.323-.272a16.977,16.977,0,0,0-1.618-.857c-1.012-.534-2.027-1.065-3.053-1.573a50.865,50.865,0,0,0-6.389-2.708c-2.128-.712-4.413-1.1-6.28.452-1.659,1.377-2.355,3.639-3,5.619a5.878,5.878,0,0,0-.411,3.494,7.14,7.14,0,0,0,1.571,2.405c1.7,1.941,4.518-.9,2.829-2.828-.153-.175-.316-.462-.479-.62q-.273-.534-.068.034c.064-.271.139-.54.222-.806a23.772,23.772,0,0,1,.947-2.736c.258-.591.6-1.464,1.28-1.672.724-.223,1.877.361,2.542.589a47.734,47.734,0,0,1,6.237,2.746c.951.486,1.895.987,2.84,1.486a7.49,7.49,0,0,0,3.108,1.265,5.912,5.912,0,0,0,3.007-1.1c.937-.516,1.881-1.022,2.835-1.507a51.308,51.308,0,0,1,6.291-2.743,7.8,7.8,0,0,1,2.741-.75c.75.051,1.069.744,1.369,1.362a18.046,18.046,0,0,1,.838,2.239,6.228,6.228,0,0,1,.482,1.626q.189-.518-.1.034a6.072,6.072,0,0,1-.473.565c-1.692,1.928,1.127,4.768,2.828,2.828Z"/><path class="a" d="M30.974,139.442q8.85-.009,17.7-.011c1.233,0,2.608.165,3.561-.787.9-.905.775-2.178.771-3.343q-.011-3.514-.022-7.029l-.009-3.509c0-1.366-.05-2.727-1.392-3.49-.976-.556-2.522-.327-3.619-.327H38.635q-12.118,0-24.237-.006-4.52,0-9.039,0c-.855,0-1.726-.049-2.58,0a2.753,2.753,0,0,0-2.726,2.681c-.057.828,0,1.682-.006,2.512q-.01,3.729-.022,7.459c0,.977-.048,1.966-.009,2.943A2.791,2.791,0,0,0,2.9,139.448c6.485.248,13.03,0,19.518-.006,2.574,0,2.578-4,0-4q-5.729,0-11.459,0H3.166q-.559-.032.049.074l.718.718c.285.444.057.4.084.025.014-.2,0-.41,0-.613q0-.75,0-1.5.006-1.92.011-3.84.006-1.878.011-3.758,0-.8,0-1.6c0-.225.011-.452,0-.677-.018-.426.21-.589-.082-.135l-.717.718c-.393.276-.611.049-.134.074.187.01.378,0,.566,0H5.057l3.756,0,10.4,0,23.2,0h7.294c.071,0,.147.006.217,0,.445-.036.232.2-.154-.074l-.717-.717c-.24-.373-.081-.044-.081.31,0,.253,0,.507,0,.76q0,.91,0,1.819,0,1.861.011,3.722,0,1.724.011,3.445,0,.667,0,1.335c0,.212-.019.449,0,.66.036.362-.209.474.085.014l.717-.718q.583-.11-.01-.072h-.339c-.411,0-.823,0-1.234,0-.555,0-1.11,0-1.664,0l-4.42,0q-5.584,0-11.169.007c-2.574,0-2.578,4,0,4Z"/><path class="a" d="M2.969,137.448c.019,8.943.13,17.886.132,26.829a2.03,2.03,0,0,0,2,2q18.312,0,36.623.024,3.233,0,6.465,0a2.029,2.029,0,0,0,2-2q0-13.439.038-26.876c0-2.574-4-2.578-4,0q-.018,13.439-.038,26.876l2-2q-17.517,0-35.033-.025-4.028,0-8.055,0l2,2c0-8.943-.113-17.886-.132-26.829-.006-2.574-4.006-2.578-4,0Z"/><path class="a" d="M28.951,122.94c0,13.784.062,27.568.076,41.352,0,2.573,4,2.578,4,0-.014-13.784-.075-27.568-.076-41.352,0-2.574-4-2.579-4,0Z"/><path class="a" d="M20.394,122.94c0,13.781.062,27.563.076,41.345,0,2.574,4,2.579,4,0-.014-13.782-.075-27.564-.076-41.345,0-2.574-4-2.579-4,0Z"/><path class="a" d="M104.125,72.14a12.839,12.839,0,0,1,.723-1.237q.191-.29.395-.569c.051-.071.334-.479.032-.053.071-.1.152-.192.229-.286a23.837,23.837,0,0,1,2.335-2.463q.665-.612,1.363-1.185.378-.312.765-.613c-.225.175-.011.011.1-.072s.245-.183.369-.273c1.128-.826,2.3-1.59,3.5-2.3a2,2,0,0,0-2.019-3.453,41.221,41.221,0,0,0-6.908,5.073,20.034,20.034,0,0,0-4.34,5.417,2,2,0,1,0,3.454,2.019Z"/><path class="a" d="M45.8,61.957c.488.369-.29-.241.184.144.12.1.241.194.36.293q.391.324.77.664c.5.447.98.913,1.447,1.393.879.9,1.687,1.865,2.476,2.848.149.186-.18-.24.046.06q.15.2.3.4c.161.216.319.434.476.654q.492.689.959,1.4c.539.815,1.053,1.645,1.552,2.485a2,2,0,0,0,3.454-2.019,40.03,40.03,0,0,0-10-11.768,2.005,2.005,0,0,0-2.736.718,2.06,2.06,0,0,0,.717,2.736Z"/><path class="b" d="M78.994,65.989a160.14,160.14,0,0,0-19.159,1.818c-1.007.147-3.5.366-4.155,1.105-1.221,1.377-.758,4.314-.916,5.983A42.6,42.6,0,0,0,55,82.9c.365,3.518.543,7.268,2.955,10.012,4.458,5.074,14.789,7.775,21.576,7.775a41.045,41.045,0,0,0,13.281-2.405c3.7-1.327,7.162-3.553,9.1-6.753,1.827-3.018,1.755-6.044,2.147-9.482a35.6,35.6,0,0,0,.141-7.282c-.167-1.665.258-4.384-.978-5.777-.656-.739-2.71-1.035-3.718-1.171A180.074,180.074,0,0,0,78.994,65.989Z"/><path class="a" d="M78.994,63.989A123.672,123.672,0,0,0,63.673,65.28c-2.423.313-4.466.464-6.733.962-2.609.572-3.8,2.29-4.064,4.89-.1.978-.058,1.955-.075,2.936-.024,1.443-.167,2.87-.126,4.318a75.878,75.878,0,0,0,.737,8.2,14.6,14.6,0,0,0,2.872,7.43,17.525,17.525,0,0,0,5.107,4.059c8.916,4.978,19.81,5.715,29.515,2.919,5.067-1.459,10.3-4.036,12.952-8.835,1.41-2.549,1.751-5.369,2.014-8.221a53.332,53.332,0,0,0,.347-8.967c-.189-2.508.306-5.646-1.744-7.551-1.812-1.683-5.146-1.636-7.442-1.927a147.521,147.521,0,0,0-18.039-1.506c-2.574-.008-2.577,3.992,0,4a129.181,129.181,0,0,1,14.182,1.039c2.142.245,4.3.473,6.425.808.585.092,1.817.124,2.252.589a5.255,5.255,0,0,1,.288,2.059c.122,4.839.3,9.727-.653,14.513-.924,4.619-4.578,7.62-8.837,9.221a36.127,36.127,0,0,1-26.268-.174c-3.437-1.365-7.268-3.5-8.439-7.249a32.525,32.525,0,0,1-1.017-6.64,49.691,49.691,0,0,1-.143-7.52c.057-1.056-.043-2.12.061-3.174a2.465,2.465,0,0,1,.244-1.082c.038-.054,0-.074-.074.006a2.354,2.354,0,0,1,.534-.18,47.554,47.554,0,0,1,6.318-.95,122.866,122.866,0,0,1,15.127-1.266C81.568,67.98,81.573,63.98,78.994,63.989Z"/><path class="a" d="M104.065,91.818a31.823,31.823,0,0,0,4.052-1.237,18.4,18.4,0,0,0,3.874-1.83,2,2,0,1,0-2.019-3.454,11.185,11.185,0,0,1-1.495.831c-.144.069-.289.135-.435.2l-.251.11c-.229.1.406-.167.17-.071-.338.136-.675.271-1.016.4a32.092,32.092,0,0,1-3.943,1.2,2.016,2.016,0,0,0-1.4,2.46,2.044,2.044,0,0,0,2.46,1.4Z"/><path class="a" d="M55.694,88.127A30.116,30.116,0,0,1,51.978,87c-.3-.114-.607-.234-.909-.356-.272-.109.167.088.186.079a1.136,1.136,0,0,1-.237-.1c-.138-.061-.276-.123-.413-.188a10.77,10.77,0,0,1-1.453-.8,2.012,2.012,0,0,0-2.736.717,2.049,2.049,0,0,0,.717,2.737,17.554,17.554,0,0,0,3.679,1.736,30.091,30.091,0,0,0,3.819,1.166,2,2,0,0,0,1.063-3.858Z"/><path class="b" d="M39.049,214.5H39.02a4.636,4.636,0,0,1-2.759-.631,3.026,3.026,0,0,1-1.454-2.042,43.624,43.624,0,0,1-.041-7.021,4.368,4.368,0,0,1,1.293-2.792,3.543,3.543,0,0,1,2.961-1.069c12.283,0,65.041.222,85.621.222a4.052,4.052,0,0,1,3.215,1.056,6.521,6.521,0,0,1,.889,2.416,26.723,26.723,0,0,1,.08,7.028,3.9,3.9,0,0,1-1.373,2.195,5.234,5.234,0,0,1-3.1.861C103.59,214.717,51.331,214.5,39.049,214.5Z"/><path class="a" d="M39.049,212.5c-.737,0-1.647.009-2.113-.69s-.268-2.276-.285-3.126c-.033-1.567-.479-4.47,1.072-5.476.7-.456,1.815-.263,2.648-.262q1.4,0,2.8,0,8.349.015,16.7.045,22.181.071,44.362.137,9.237.024,18.474.035c.992,0,3.046-.351,3.671.452a3.982,3.982,0,0,1,.45,1.92c.081,1.084.2,2.16.2,3.25a7.446,7.446,0,0,1-.255,2.8c-.465.98-1.444,1.1-2.416,1.131-1.21.039-2.428,0-3.638,0q-21.1-.021-42.2-.109-18.567-.06-37.136-.109l-2.335,0c-2.573,0-2.578,4,0,4,12.284,0,24.568.063,36.852.1q22.578.073,45.155.119a32.953,32.953,0,0,0,4.619-.13,5.767,5.767,0,0,0,5.15-4.924,29.208,29.208,0,0,0-.038-6.562c-.217-2.13-.863-4.34-2.953-5.325-1.653-.779-3.56-.612-5.342-.614q-2.126,0-4.252,0-5.064-.007-10.129-.02Q84.5,199.081,60.883,199q-8.944-.029-17.888-.05c-2.273,0-5.233-.452-7.228.767-2.344,1.431-2.958,3.84-3.078,6.408q-.077,1.633-.017,3.268a10.685,10.685,0,0,0,.465,3.818c1.035,2.366,3.494,3.29,5.912,3.29C41.623,216.5,41.627,212.5,39.049,212.5Z"/><path class="a" d="M115.7,139.785c1.929,5.383,3.551,11.349,3.182,17.118a5.667,5.667,0,0,1-.166.948c-.008.027-.012.027-.009.02-.031.067-.126.115-.174.17.16-.183.171-.05.01-.048.315,0,.055-.006-.133.016-.38.046.245.024-.159.009-.187-.008-.373-.006-.561-.02.333.026-.253-.045-.363-.069a20.529,20.529,0,0,1-4.811-1.875c-.829-.4-1.54-.781-2.219-1.089a6.412,6.412,0,0,0-4.12-.3c-1.23.269-2.39.856-3.637,1.05a6.647,6.647,0,0,1-.855.084,1.806,1.806,0,0,1-.425-.24c-.192-.113.075.066.094.082-.076-.065-.145-.139-.221-.2-.265-.225.118.244-.058-.053-.076-.128-.149-.254-.219-.384.162.3.031.115-.016-.085-.043-.18-.089-.356-.125-.538-.016-.082,0,.264,0-.128,0-.174-.011-.349-.008-.524s.019-.365.029-.548c0-.094.017-.188.027-.282-.024.219-.017.1.008-.047a25.234,25.234,0,0,1,1.658-5.35c.776-1.9,1.8-3.972,2.72-5.918a28.69,28.69,0,0,0,2.04-4.957c.64-2.5-3.217-3.559-3.858-1.063-.079.31-.176.615-.284.917-.054.149-.11.3-.168.445-.046.119-.273.663-.13.329-.375.881-.786,1.746-1.2,2.61-1,2.1-2,4.2-2.889,6.349-1.36,3.282-3.228,8.09-.913,11.372,1.651,2.34,4.426,2.477,6.987,1.7,1.044-.317,2.36-1.026,3.476-.831a1.732,1.732,0,0,1,.466.158c.146.069,1.209.605.655.355q.585.264,1.163.541c3.2,1.526,9.275,4.681,11.7.3a9.109,9.109,0,0,0,.73-4.466,38.592,38.592,0,0,0-.522-5.666,59.742,59.742,0,0,0-2.844-10.95,2.052,2.052,0,0,0-2.461-1.4,2.018,2.018,0,0,0-1.4,2.46Z"/><path class="b" d="M114.718,112.96a13.556,13.556,0,0,1,12.228,7.311c2.984,5.286,2.778,11.207-2.655,16.063-2.3,2.059-6.041,3.687-8.728,2.164a11.948,11.948,0,0,0-3.05-1.4c-7.417-.871-9.832-3.418-10.976-7.178s-.614-6.5,1.309-9.927a17.323,17.323,0,0,1,4.162-4.674C109.049,113.362,112.257,112.9,114.718,112.96Z"/><path class="b" d="M40.207,160.524a10.752,10.752,0,0,0-2.391-6.61c-2.548-3.285-8.128-5.095-12.035-3.672a9.95,9.95,0,0,1-2.546.827,11.167,11.167,0,0,1-2.516-.346,7.043,7.043,0,0,0-7.443,4.113,14.709,14.709,0,0,0-1.442,9.361c.462,2.642,1.612,6.305,4.251,8.007,3.016,1.946,5.284,3.051,8.9,3.289a15.526,15.526,0,0,0,8.53-1.811,13.187,13.187,0,0,0,6.591-9.465A23.3,23.3,0,0,0,40.207,160.524Z"/><path class="a" d="M42.207,160.524a13.048,13.048,0,0,0-4.1-9.211,14.464,14.464,0,0,0-8.9-3.55,10.828,10.828,0,0,0-4.5.763,4.521,4.521,0,0,1-2.053.531c-.947-.076-1.862-.384-2.823-.413A9.114,9.114,0,0,0,12,153.054c-3.588,5.571-3.2,14.519,1.4,19.482a17.477,17.477,0,0,0,8.658,4.565,18.323,18.323,0,0,0,10.933-.956,15.222,15.222,0,0,0,7.583-7.006,16.85,16.85,0,0,0,1.638-8.615c-.1-2.566-4.1-2.578-4,0,.027.728.039,1.455.011,2.183-.014.357-.044.711-.069,1.067-.095,1.4.08-.277-.04.364a11.191,11.191,0,0,1-4.293,6.979c-4.659,3.489-10.917,2.905-15.665.025a8.486,8.486,0,0,1-3.9-5.35,13.69,13.69,0,0,1,.1-8.429c.738-2.118,2.129-4.269,4.507-4.669,1.284-.216,2.478.278,3.748.362,1.558.1,2.731-.613,4.169-1.033a9.514,9.514,0,0,1,7.408,1.321,8.787,8.787,0,0,1,4.027,7.18C38.346,163.084,42.347,163.1,42.207,160.524Z"/><path class="a" d="M114.718,114.96a12.237,12.237,0,0,1,11.167,7.627,10.425,10.425,0,0,1-3.917,13.035,8.37,8.37,0,0,1-3.34,1.437,4.615,4.615,0,0,1-3.079-.86,11.046,11.046,0,0,0-3.786-1.2,19.931,19.931,0,0,1-3.854-.941,6.972,6.972,0,0,1-3.666-2.843A9.926,9.926,0,0,1,103.029,125a12.988,12.988,0,0,1,4.475-7.449,9.238,9.238,0,0,1,2.853-1.972,11.946,11.946,0,0,1,4.361-.618c2.575.04,2.576-3.96,0-4a13.108,13.108,0,0,0-9.206,3.021,19.846,19.846,0,0,0-5.7,7.764c-2.018,5.169-.422,12.027,4.488,15a15.259,15.259,0,0,0,3.971,1.611c1.446.382,3.116.331,4.481.909,1.542.652,2.736,1.6,4.46,1.785a9.674,9.674,0,0,0,4.936-.955,14.618,14.618,0,0,0,8.231-16.715,17.44,17.44,0,0,0-5.736-8.975,16.468,16.468,0,0,0-9.925-3.441C112.143,110.871,112.147,114.871,114.718,114.96Z"/></svg>